PathFileType	4	(X/Y/Z)	D:\TRACE\v60_Jaco2_6-2-23\JustBodyDRS_Motion1_1-platform.trc
DataRate	CameraRate	NumFrames	NumMarkers	Units	OrigDataRate	OrigDataStartFrame	OrigNumFrames
100.00	100.00	      53	5	mm	100.00	6563	      7500
Frame#	Time	Left_Front			Right_Front			Left_Aft			Right_Aft			Post			
		X1	Y1	Z1	X2	Y2	Z2	X3	Y3	Z3	X4	Y4	Z4	X5	Y5	Z5	

6563	65.620	-832.74042	31.47515	-632.79980	736.92480	32.16914	-638.30127	-740.79657	-7.53271	501.57697	701.16956	-9.61989	510.63416	-46.39338	1340.32410	-911.84937	
6564	65.630	-833.91193	31.66391	-632.89014	736.35413	32.48954	-638.09741	-742.00354	-7.86705	501.67868	700.28137	-9.82879	510.77133	-47.12124	1340.80554	-911.43982	
6565	65.640	-834.74176	31.96475	-632.85638	735.65808	32.40283	-638.11328	-742.65820	-8.16707	501.85352	699.64630	-10.10407	510.88412	-48.20992	1341.37659	-910.85858	
6566	65.650	-835.15845	32.37013	-632.58014	734.49316	32.88710	-638.01367	-743.46716	-8.46219	501.91776	698.63470	-10.41286	510.82159	-48.52647	1341.88123	-909.92822	
6567	65.660	-835.70599	33.07915	-632.42175	733.71484	33.46124	-637.70874	-744.20081	-8.65845	502.07043	697.73969	-10.68476	510.96506	-48.88182	1342.36340	-909.07611	
6568	65.670	-836.79980	33.36169	-632.13269	733.24500	33.82334	-637.77032	-744.86755	-8.85360	502.22864	697.37415	-10.88427	511.23038	-50.31595	1342.89160	-908.51001	
6569	65.680	-837.79846	33.79535	-632.23840	732.61096	34.21552	-637.63098	-745.40710	-9.11456	502.16583	696.44611	-11.10408	511.26416	-51.17533	1343.25989	-907.54242	
6570	65.690	-838.48651	33.95432	-632.42487	731.81421	34.58666	-637.45135	-746.30481	-9.44524	502.15649	695.62067	-11.33108	511.20862	-51.40187	1343.55884	-906.51178	
6571	65.700	-839.01709	34.09267	-632.44110	730.85162	34.62509	-637.38367	-747.19861	-9.66538	502.33917	694.89258	-11.47380	511.34665	-52.16613	1344.26794	-905.18903	
6572	65.710	-839.54474	34.72628	-632.13922	730.06610	34.96085	-637.35425	-747.94666	-9.79757	502.45197	694.63055	-11.55348	511.42880	-52.87064	1344.76843	-904.59973	
6573	65.720	-840.41193	35.08144	-631.60272	729.72235	35.33517	-637.27234	-748.49072	-9.98749	502.57938	693.51141	-12.03540	511.47546	-53.57340	1345.24500	-903.56006	
6574	65.730	-841.03168	35.38831	-631.78308	729.03546	35.68522	-637.03577	-749.06812	-10.08796	502.67963	693.01782	-12.16300	511.60376	-53.94284	1345.65796	-903.07361	
6575	65.740	-841.82440	35.64777	-631.85791	728.32263	35.99316	-637.06281	-749.84204	-10.32285	502.76205	692.53461	-12.33868	511.66180	-54.70534	1345.85168	-902.41254	
6576	65.750	-842.39978	35.82162	-631.89972	727.43054	36.35884	-637.04138	-750.47400	-10.67576	502.69397	691.81116	-12.48205	511.76913	-55.59654	1346.42883	-901.98840	
6577	65.760	-842.87677	36.01223	-631.64569	727.00287	36.42495	-637.02472	-751.02612	-10.89049	502.72513	690.92957	-12.97740	511.80316	-55.87550	1346.72620	-901.79523	
6578	65.770	-843.69733	36.47678	-631.16156	726.50116	36.74140	-636.74786	-751.66815	-11.05144	502.72794	690.34436	-13.17384	511.89005	-56.51665	1347.45276	-901.12933	
6579	65.780	-844.18823	36.76726	-631.13409	725.94495	37.17719	-636.74597	-752.32733	-11.25252	502.83127	690.12335	-13.24989	511.94159	-57.10314	1347.78955	-900.72778	
6580	65.790	-844.71655	37.03098	-631.10229	725.23431	37.54319	-636.64355	-752.82831	-11.39512	502.99396	690.26111	-12.97060	512.00012	-57.96553	1348.10278	-899.91650	
6581	65.800	-845.23328	37.28600	-631.26367	724.78333	37.67738	-636.66376	-753.38354	-11.59361	503.15198	688.45477	-13.69581	512.07703	-58.30055	1348.37903	-899.10974	
6582	65.810	-845.90948	37.50162	-631.37231	724.16278	37.89868	-636.54535	-753.90210	-11.78229	503.19214	687.90875	-14.08559	512.15002	-58.86947	1348.65466	-898.45294	
6583	65.820	-846.26953	37.90379	-631.21509	723.61261	38.07293	-636.53290	-754.43256	-11.96275	503.14639	687.47327	-14.20751	512.22095	-59.33364	1349.08118	-897.31378	
6584	65.830	-846.86951	38.47554	-631.09912	723.10175	38.35461	-636.33826	-754.97754	-12.06953	503.09598	687.25555	-14.30170	512.21466	-59.85095	1349.45459	-896.78979	
6585	65.840	-847.34741	38.42851	-630.90778	722.76758	38.58735	-636.33936	-755.45703	-12.17733	503.11884	687.11108	-14.33954	512.27271	-60.49693	1349.76660	-896.17755	
6586	65.850	-847.76593	38.35067	-630.87537	722.49841	38.74346	-636.27185	-755.57538	-12.40082	503.20065	686.27289	-14.69613	512.19928	-60.97465	1349.99060	-895.85620	
6587	65.860	-848.09851	38.49012	-630.69995	722.01746	38.92335	-636.25671	-755.69885	-13.21120	503.80856	685.69647	-14.82076	512.33826	-61.29659	1350.43359	-895.64093	
6588	65.870	-848.42834	38.67910	-630.71198	721.39801	39.14271	-636.28833	-756.70367	-12.85383	503.10980	685.58490	-14.85580	512.38824	-61.48447	1350.78186	-895.37036	
6589	65.880	-848.70984	39.06421	-630.83362	720.80243	39.28122	-636.19202	-756.94397	-13.01648	503.16541	685.11066	-15.11160	512.48749	-61.93947	1351.04688	-895.13324	
6590	65.890	-849.08246	39.38970	-630.88745	720.59900	39.51170	-635.92792	-757.17200	-13.07671	503.29263	684.99316	-15.17614	512.55536	-62.09887	1351.33521	-894.87634	
6591	65.900	-849.54279	39.63498	-630.62097	720.67505	39.81428	-635.74792	-757.61163	-13.14643	503.38715	684.77448	-15.31022	512.55664	-62.15298	1351.63440	-894.52020	
6592	65.910	-850.00336	39.82716	-630.50549	720.34698	40.22838	-635.77606	-757.75433	-13.27801	503.41595	684.60413	-15.38900	512.57660	-62.66393	1351.80908	-894.01917	
6593	65.920	-850.16302	39.90023	-630.54938	720.09503	40.39523	-635.83759	-757.90564	-13.40695	503.48239	684.44183	-15.48954	512.60083	-63.34012	1351.97021	-893.03625	
6594	65.930	-850.15997	39.92623	-630.40826	719.98376	40.02750	-635.79364	-758.07062	-13.53730	503.54007	684.09943	-15.73432	512.61584	-63.25260	1352.23474	-892.55017	
6595	65.940	-850.51959	39.89034	-630.56128	719.77887	40.27477	-635.70013	-758.39539	-13.62159	503.63910	683.74231	-15.98639	512.60760	-63.14861	1352.54858	-891.98737	
6596	65.950	-850.65417	40.04875	-630.45398	719.72162	40.71394	-635.47589	-758.59369	-13.79136	503.66324	683.48889	-16.12195	512.56860	-63.28526	1352.71765	-891.24664	
6597	65.960	-850.64850	40.20626	-630.28955	719.55927	40.93123	-635.49542	-758.69238	-13.89094	503.72925	682.95343	-16.14067	512.68042	-63.47602	1352.71619	-890.75122	
6598	65.970	-850.77063	40.39926	-630.30762	719.51117	41.12533	-635.56653	-758.70728	-14.00526	503.71719	682.94324	-16.22098	512.68762	-63.54047	1352.90247	-890.69214	
6599	65.980	-850.72833	40.58297	-630.40881	719.49353	41.30779	-635.52979	-758.71448	-14.01647	503.82745	682.90570	-16.24003	512.73370	-63.54979	1353.09924	-890.51825	
6600	65.990	-850.73450	40.52359	-630.37524	719.53833	41.21651	-635.55365	-758.67017	-14.06898	503.74203	682.94336	-16.26020	512.74957	-63.66450	1353.20911	-890.53467	
6601	66.000	-850.72394	40.45785	-630.42120	719.46008	41.19606	-635.52863	-758.74213	-14.07214	503.81622	683.02808	-16.29610	512.79645	-63.66914	1353.27258	-890.61145	
6602	66.010	-850.82190	40.42430	-630.25385	719.48419	41.31760	-635.45972	-758.71429	-14.19995	503.79440	682.93628	-16.35821	512.76404	-63.56465	1353.24976	-890.81024	
6603	66.020	-850.70551	40.74462	-630.26501	719.50500	41.39248	-635.47491	-758.80927	-14.16720	503.84012	682.95990	-16.44567	512.78308	-63.63072	1353.20898	-890.85724	
6604	66.030	-850.66412	40.74360	-630.20319	719.53528	41.42564	-635.45752	-758.68579	-14.22256	503.84760	683.25208	-16.52143	512.70654	-63.52424	1353.32129	-890.94586	
6605	66.040	-850.69061	40.68776	-630.27087	719.49670	41.45985	-635.47626	-758.68909	-14.12308	503.82950	683.23956	-16.53683	512.70911	-63.50691	1353.47083	-890.98138	
6606	66.050	-850.70392	40.69051	-630.31146	719.52405	41.58604	-635.42212	-758.65625	-14.18157	503.80563	683.28979	-16.52549	512.72247	-63.48909	1353.48560	-890.91260	
6607	66.060	-850.77997	40.77862	-630.14478	719.47559	41.55787	-635.45905	-758.70801	-14.20562	503.83411	683.31152	-16.57954	512.71753	-63.58209	1353.60254	-890.72791	
6608	66.070	-850.72736	40.96181	-630.12708	719.51935	41.57017	-635.38879	-758.74615	-14.35830	503.89420	683.32397	-16.63397	512.74542	-63.62610	1353.73352	-890.53149	
6609	66.080	-850.68762	40.93998	-630.03723	719.51801	41.63006	-635.35553	-758.71045	-14.38898	503.96323	683.15070	-16.68628	512.82025	-63.75400	1353.78564	-890.32953	
6610	66.090	-850.55005	40.92693	-629.86963	719.59155	41.70135	-635.36761	-758.54492	-14.38142	503.93222	683.75720	-16.45320	512.77789	-63.68472	1353.89343	-890.14099	
6611	66.100	-850.38617	41.26137	-629.96832	719.76160	41.74879	-635.36615	-758.45294	-14.34809	503.92316	683.67773	-16.74811	512.77966	-63.55041	1354.10754	-889.93915	
6612	66.110	-850.30591	41.25801	-630.03717	720.00494	41.74817	-635.39514	-758.20032	-14.43978	503.86182	684.05676	-16.90346	512.89148	-63.37275	1353.96692	-889.67328	
6613	66.120	-849.93640	40.90285	-629.59888	720.20996	41.70914	-635.39911	-757.93207	-14.51128	503.93506	683.98749	-17.18107	512.80554	-62.75399	1353.92505	-889.01678	
6614	66.130	-849.71747	40.78542	-629.73969	720.26648	41.59858	-635.35797	-757.63141	-14.57136	503.91986	684.12671	-17.25964	512.72620	-62.35417	1353.78723	-888.98920	
6615	66.140	-849.28864	40.92088	-630.07965	720.51978	41.55134	-635.29242	-757.26746	-14.36660	503.82120	684.22101	-17.24943	512.72021	-62.07679	1353.67468	-889.09229	
